PathFileType	4	(X/Y/Z)	RBDS025\RBDS025runT45.trc
DataRate	CameraRate	NumFrames	NumMarkers	Units	OrigDataRate	OrigDataStartFrame	OrigNumFrames
150.000000	150.000000	5	33	mm	150.000000	562	4500
Frame#	Time	L.ASIS			L.Heel.Bottom			L.Heel.Lateral			L.Heel.Top			L.Iliac.Crest			L.MT1			L.MT5			L.PSIS			L.Shank.Bottom.Lateral			L.Shank.Bottom.Medial			L.Shank.Top.Lateral			L.Shank.Top.Medial			L.Thigh.Bottom.Lateral			L.Thigh.Bottom.Medial			L.Thigh.Top.Lateral			L.Thigh.Top.Medial			R.ASIS			R.ASY			R.Heel.Bottom			R.Heel.Lateral			R.Heel.Top			R.Iliac.Crest			R.MT1			R.MT5			R.PSIS			R.Shank.Bottom.Lateral			R.Shank.Bottom.Medial			R.Shank.Top.Lateral			R.Shank.Top.Medial			R.Thigh.Bottom.Lateral			R.Thigh.Bottom.Medial			R.Thigh.Top.Lateral			R.Thigh.Top.Medial			
		X1	Y1	Z1	X2	Y2	Z2	X3	Y3	Z3	X4	Y4	Z4	X5	Y5	Z5	X6	Y6	Z6	X7	Y7	Z7	X8	Y8	Z8	X9	Y9	Z9	X10	Y10	Z10	X11	Y11	Z11	X12	Y12	Z12	X13	Y13	Z13	X14	Y14	Z14	X15	Y15	Z15	X16	Y16	Z16	X17	Y17	Z17	X18	Y18	Z18	X19	Y19	Z19	X20	Y20	Z20	X21	Y21	Z21	X22	Y22	Z22	X23	Y23	Z23	X24	Y24	Z24	X25	Y25	Z25	X26	Y26	Z26	X27	Y27	Z27	X28	Y28	Z28	X29	Y29	Z29	X30	Y30	Z30	X31	Y31	Z31	X32	Y32	Z32	X33	Y33	Z33	

563	3.746666666666667	2091.689530024546	896.3324109517855	874.384845508717	1587.990940388746	106.2266662087699	985.0056105734019	1614.280401788208	114.4498952247453	937.2003364002188	1614.33986159337	142.2949196540413	982.308317571065	2024.518674427119	980.8807790642909	830.457145512489	1781.616016933932	34.3213124759983	991.3588700338483	1738.140739332794	45.68875193749111	884.496505050621	1944.748554240371	975.1461727307865	938.5387694736446	1739.425771237347	198.1299219108383	906.2279638096405	1702.139683683411	232.2159317958107	929.1786145495997	1781.731128186874	262.0297842016365	881.476309641743	1744.260437893332	295.7076908891636	900.7621915484367	1953.483748578635	556.9086842980756	830.7983470892259	1888.43720480037	562.6417977423682	863.1931520501741	1953.157123322836	664.3622200380635	814.4244849206634	1894.110511481891	671.3481468895601	850.9303311811548	2115.600939498137	902.3918923239911	1072.02978511446	1917.875670910736	193.9151577788632	1069.784708870484	1789.590193501965	329.4620875942064	1027.514326409891	1817.789279775911	322.8367750318819	1072.102260398289	1832.761447024809	341.7189014144878	1028.21316783766	2061.267962857802	965.9368364407128	1125.32843164933	1897.908416525966	144.7611799574218	1030.042581607434	1868.557897399378	182.7594466223119	1129.806063614514	1954.328863291478	969.8117027213485	1041.379780903579	1956.953522526949	354.8079569979579	1095.574621599179	1938.296091786738	388.1549250588869	1061.109551859731	2024.650198922943	405.1647630680135	1103.985028827032	2001.714562666781	437.5376509131211	1068.485580341786	2179.362487446313	583.3376456986288	1131.766143343496	2127.987078819143	550.7167877839207	1094.029765175183	2112.60530152424	669.7128088298248	1150.068627897529	2061.375831136623	635.6910815589721	1117.889377263784	
564	3.753333333333333	2093.423492999343	898.6946410602025	874.9235903034557	1565.87405782027	119.7060400115575	983.0504740803059	1592.156877697018	124.9560637566469	934.8959749054092	1594.218780669191	153.8973508259542	979.1966499824384	2029.30079348872	984.1200846539502	830.6405616409962	1753.721193820492	35.66740213703839	990.0791051187265	1710.447941939982	47.18356851728193	883.2207241490376	1947.149032675658	978.9602412664576	938.0030604566485	1717.041227891567	206.9737812434309	902.2999000605646	1680.625364808043	240.5608993794512	927.1452062307084	1759.150195626039	271.1962087830876	878.1329942193125	1722.421109321392	304.4626976033206	899.1630843150317	1939.713819376121	564.0754088156921	829.4073945167854	1875.025154287491	572.8583033172109	861.7249360948684	1944.749865074279	671.3254093187659	813.5976612495706	1886.098163448017	681.0788891798366	850.1244460265782	2116.845978396882	907.9234084392933	1072.102219300433	1950.638929594264	181.2418024407674	1068.543063065814	1810.427203256231	304.208928750303	1024.639300653278	1838.684599759412	300.4293262107902	1069.385039114582	1852.327633490905	320.6012179352995	1025.456018599445	2063.174876593074	972.7919378224968	1125.474479351133	1935.810866636005	130.1858539317529	1029.015704411102	1901.873151195229	165.7537125046462	1128.181380506489	1955.918650112953	974.8754361315522	1041.171612571307	1975.536814429905	344.496503829858	1093.549858779295	1954.38673723349	376.1190953357057	1058.843056382113	2038.933029099802	400.2933559997254	1102.03856864717	2013.569577115095	430.6325084241741	1066.366007027643	2185.676794548637	593.0126253322051	1130.417579757403	2134.914372005745	559.6360637743525	1092.534757358767	2117.037563818248	677.6813976310606	1149.833484202933	2066.709234708768	643.1161806333427	1116.976185094771	
565	3.76	2095.313416110823	900.8514124083085	875.6223776539254	1545.461834469947	134.1639946994829	980.4949479089122	1571.62508388628	136.3635742419669	932.075176784558	1575.8211522456	166.2308206636848	975.5387716359555	2034.532017283758	986.9542728555955	830.7921770518356	1726.733082577583	37.73597924464062	988.4350149943086	1683.604299823736	49.42579299102371	881.7132786343051	1949.695701643413	982.6349607150571	937.3842282101292	1695.931758150338	216.4523520354019	897.988039123108	1660.297135969919	249.3800815605194	924.7544553974711	1737.688486718032	281.1397288043887	874.521024394636	1701.654221472092	313.8364151273095	897.3761952981046	1926.243204615504	572.0799916368528	827.9889040686832	1862.21232836176	583.873720662142	860.4972302315587	1936.601772089382	678.8785660007145	812.7776018536968	1878.634974654365	691.3169818135796	849.5752521063351	2118.124878823266	913.2917955981621	1072.286266018282	1984.281050931555	169.4335553191809	1067.150293459586	1833.216455862257	278.6414754814439	1021.617146630657	1861.278272149071	277.7610830642488	1066.522516600041	1873.473899203834	299.0454221280444	1022.543364566005	2065.336226109966	979.6959903227499	1125.602468755778	1974.850487847623	116.9204792370841	1027.903337927358	1936.513187336068	149.721064578819	1126.518721877972	1957.628762538181	979.7930790313338	1040.899526383119	1994.747882967876	333.8417701425519	1091.493281100831	1971.219509563391	363.526861477199	1056.543117836091	2053.375444528642	394.7392417940486	1100.098577848158	2025.7302471951	422.851931507677	1064.258833291236	2191.01100196024	601.8638874439321	1128.999760913713	2140.628530039558	567.8951509461374	1091.191262757093	2120.913593898406	685.1078317292358	1149.51810158593	2071.320232079382	650.2395983913328	1116.125346487161	
566	3.766666666666667	2097.25354414736	902.7733108734745	876.4308922809035	1526.656265069616	149.4544840309637	977.2461077846187	1552.627057960762	148.5977158697651	928.6727100877871	1558.995201413544	179.201033727211	971.2985201648709	2040.099317956381	989.3622545376164	830.9065137144081	1700.667200618684	40.68393014366676	986.4371289340042	1657.724019027174	52.56786740964073	879.9558508828155	1952.286816858797	986.1302523218019	936.683016619886	1676.14142446307	226.4498558043547	893.3856703391779	1641.158591586343	258.6308202197487	921.9671113381603	1717.478950772291	291.688123147517	870.725684558554	1682.05469449084	323.7254154414806	895.3561617991503	1913.173821496632	580.7543785084517	826.6374843463971	1850.079481788864	595.4796279139517	859.6021623938304	1928.757380184321	686.8823500901062	812.0278150789532	1871.754706923196	701.8858954920776	849.3567676958446	2119.363168001149	918.3694828337447	1072.563197718755	2018.697473688992	158.6877284364163	1065.544002421975	1858.036801609023	253.0882188537333	1018.548137892395	1885.666209869386	255.1074210099235	1063.6034973393	1896.272264479351	277.3215477875601	1019.567907997528	2067.571528566355	986.4435644146148	1125.69887625683	2014.826082202104	105.2234947020994	1026.604151204438	1972.424178610492	134.8922577641224	1124.764100251537	1959.385508055358	984.4603006232262	1040.548037028906	2014.658918861548	322.930845940225	1089.440597114251	1988.88021235273	350.5193727565146	1054.293577726727	2068.092745485083	388.5076268037608	1098.234864256059	2038.330041841117	414.25151230145	1062.263761771577	2195.406145032773	609.720942935522	1127.535391583133	2145.163059935812	575.2639622198124	1090.069838752996	2124.249288508502	691.8520607687066	1149.077817407473	2075.194726633368	656.8434809244532	1115.377754761406	
567	3.773333333333333	2099.135448155857	904.4562404270317	877.2834862256075	1509.262094828885	165.4263040086083	973.2412079620663	1535.021888294317	161.576969107773	924.650519872642	1543.497123978416	192.7233476592569	966.4715041470342	2045.845498641649	991.3568736194767	830.9879445544632	1675.486539635243	44.66628293890357	984.1264228141438	1632.894333368605	56.75663864571939	877.9394833833741	1954.816336912817	989.4184221605417	935.9201082595521	1657.669395768007	236.8547532591541	888.604524247177	1623.1784634589	268.2934934974195	918.76030775613	1698.628876252168	302.6556992608129	866.8383741317368	1663.698001964246	334.0314832340206	893.0551320679637	1900.65074681425	589.8832909297245	825.4366626336437	1838.733853665631	607.4161471318681	859.1005322100463	1921.292927675229	695.1588031131372	811.4036412100684	1865.501159258245	712.569887563566	849.510141280175	2120.493226883472	923.0361526754607	1072.894978368124	2053.737594519551	149.2077283283459	1063.662743708058	1884.898287901106	227.883412651779	1015.517600073369	1911.883125386385	232.7513707459192	1060.704381528247	1920.729187233162	255.7112627851886	1016.615903802272	2069.711465916482	992.8194967270591	1125.7503911378	2055.477498851894	95.35142816061739	1025.007914769643	2009.502373158087	121.4982681931925	1122.847671020845	1961.117101853147	988.7858715866212	1040.119126821539	2035.287815324014	311.8831030571394	1087.425240319019	2007.397404664971	337.2664468418344	1052.165186962168	2083.15319309586	381.647943248473	1096.514858241054	2051.450333848033	404.9282501735926	1060.470853580716	2198.89638614671	616.4481432032969	1126.062733381164	2148.560575976974	581.559056972551	1089.231173367519	2127.051786266526	697.7949036996135	1148.490865490578	2078.32086311501	662.7361659889661	1114.774394529406	
